<?xml version="1.0" encoding="utf-8"?>
<svg xmlns="http://www.w3.org/2000/svg" viewBox="29.7058 -1.6096 130.0244 129.989" width="130.024px" height="129.989px" preserveAspectRatio="none"><defs><mask id="mask-0"><g><rect x="-7.97" y="-3.24" width="144.505" height="144.505" style="stroke: rgb(0, 0, 0); fill: rgb(255, 255, 255); stroke-opacity: 0; stroke-width: 0px;"/><path d="M66.004 18c-13.036 0-14.672.057-19.792.29-5.11.234-8.598 1.043-11.65 2.23-3.157 1.226-5.835 2.866-8.503 5.535-2.67 2.668-4.31 5.346-5.54 8.502-1.19 3.053-2 6.542-2.23 11.65C18.06 51.327 18 52.964 18 66s.058 14.667.29 19.787c.235 5.11 1.044 8.598 2.23 11.65 1.227 3.157 2.867 5.835 5.536 8.503 2.667 2.67 5.345 4.314 8.5 5.54 3.054 1.187 6.543 1.996 11.652 2.23 5.12.233 6.755.29 19.79.29 13.037 0 14.668-.057 19.788-.29 5.11-.234 8.602-1.043 11.656-2.23 3.156-1.226 5.83-2.87 8.497-5.54 2.67-2.668 4.31-5.346 5.54-8.502 1.18-3.053 1.99-6.542 2.23-11.65.23-5.12.29-6.752.29-19.788 0-13.036-.06-14.672-.29-19.792-.24-5.11-1.05-8.598-2.23-11.65-1.23-3.157-2.87-5.835-5.54-8.503-2.67-2.67-5.34-4.31-8.5-5.535-3.06-1.187-6.55-1.996-11.66-2.23-5.12-.233-6.75-.29-19.79-.29zm-4.306 8.65c1.278-.002 2.704 0 4.306 0 12.816 0 14.335.046 19.396.276 4.68.214 7.22.996 8.912 1.653 2.24.87 3.837 1.91 5.516 3.59 1.68 1.68 2.72 3.28 3.592 5.52.657 1.69 1.44 4.23 1.653 8.91.23 5.06.28 6.58.28 19.39s-.05 14.33-.28 19.39c-.214 4.68-.996 7.22-1.653 8.91-.87 2.24-1.912 3.835-3.592 5.514-1.68 1.68-3.275 2.72-5.516 3.59-1.69.66-4.232 1.44-8.912 1.654-5.06.23-6.58.28-19.396.28-12.817 0-14.336-.05-19.396-.28-4.68-.216-7.22-.998-8.913-1.655-2.24-.87-3.84-1.91-5.52-3.59-1.68-1.68-2.72-3.276-3.592-5.517-.657-1.69-1.44-4.23-1.653-8.91-.23-5.06-.276-6.58-.276-19.398s.046-14.33.276-19.39c.214-4.68.996-7.22 1.653-8.912.87-2.24 1.912-3.84 3.592-5.52 1.68-1.68 3.28-2.72 5.52-3.592 1.692-.66 4.233-1.44 8.913-1.655 4.428-.2 6.144-.26 15.09-.27zm29.928 7.97c-3.18 0-5.76 2.577-5.76 5.758 0 3.18 2.58 5.76 5.76 5.76 3.18 0 5.76-2.58 5.76-5.76 0-3.18-2.58-5.76-5.76-5.76zm-25.622 6.73c-13.613 0-24.65 11.037-24.65 24.65 0 13.613 11.037 24.645 24.65 24.645C79.617 90.645 90.65 79.613 90.65 66S79.616 41.35 66.003 41.35zm0 8.65c8.836 0 16 7.163 16 16 0 8.836-7.164 16-16 16-8.837 0-16-7.164-16-16 0-8.837 7.163-16 16-16z" style="fill-rule: evenodd; paint-order: fill;"/></g></mask></defs><g style="mask: url(&quot;#mask-0&quot;);" transform="matrix(0.9999999999999999, 0, 0, 0.9999999999999999, 28.705224990844727, -2.6095662117004395)" id="object-0"><path d="M 66.034 1 C 38.892 1 30.954 1.028 29.411 1.156 C 23.841 1.619 20.375 2.496 16.599 4.376 C 13.689 5.821 11.394 7.496 9.129 9.844 C 5.004 14.126 2.504 19.394 1.599 25.656 C 1.159 28.696 1.031 29.316 1.005 44.844 C 0.995 50.02 1.005 56.832 1.005 65.969 C 1.005 93.089 1.035 101.019 1.165 102.559 C 1.615 107.979 2.465 111.389 4.265 115.119 C 7.705 122.259 14.275 127.619 22.015 129.619 C 24.695 130.309 27.655 130.689 31.455 130.869 C 33.065 130.939 49.475 130.989 65.895 130.989 C 82.315 130.989 98.735 130.969 100.305 130.889 C 104.705 130.682 107.26 130.339 110.085 129.609 C 117.875 127.599 124.325 122.319 127.835 115.079 C 129.6 111.439 130.495 107.899 130.9 102.762 C 130.988 101.642 131.025 83.785 131.025 65.952 C 131.025 48.116 130.985 30.292 130.897 29.172 C 130.487 23.952 129.592 20.442 127.77 16.732 C 126.275 13.695 124.615 11.427 122.205 9.108 C 117.904 5 112.644 2.5 106.376 1.596 C 103.339 1.157 102.734 1.027 87.194 1 L 66.034 1 Z" style="fill: rgb(102, 102, 102);"/><path d="M 66.034 1 C 38.892 1 30.954 1.028 29.411 1.156 C 23.841 1.619 20.375 2.496 16.599 4.376 C 13.689 5.821 11.394 7.496 9.129 9.844 C 5.004 14.126 2.504 19.394 1.599 25.656 C 1.159 28.696 1.031 29.316 1.005 44.844 C 0.995 50.02 1.005 56.832 1.005 65.969 C 1.005 93.089 1.035 101.019 1.165 102.559 C 1.615 107.979 2.465 111.389 4.265 115.119 C 7.705 122.259 14.275 127.619 22.015 129.619 C 24.695 130.309 27.655 130.689 31.455 130.869 C 33.065 130.939 49.475 130.989 65.895 130.989 C 82.315 130.989 98.735 130.969 100.305 130.889 C 104.705 130.682 107.26 130.339 110.085 129.609 C 117.875 127.599 124.325 122.319 127.835 115.079 C 129.6 111.439 130.495 107.899 130.9 102.762 C 130.988 101.642 131.025 83.785 131.025 65.952 C 131.025 48.116 130.985 30.292 130.897 29.172 C 130.487 23.952 129.592 20.442 127.77 16.732 C 126.275 13.695 124.615 11.427 122.205 9.108 C 117.904 5 112.644 2.5 106.376 1.596 C 103.339 1.157 102.734 1.027 87.194 1 L 66.034 1 Z" style="fill-rule: nonzero; paint-order: fill; fill: rgb(102, 102, 102);"/></g></svg>