<?xml version="1.0" encoding="utf-8"?>
<svg xmlns="http://www.w3.org/2000/svg" viewBox="161.775 95.6429 221.105 198.9431" width="221.106px" height="198.947px" preserveAspectRatio="none"><path color="#000" d="M 190.603 96.873 C 180.959 102.599 161.957 124.43 161.775 130.155 L 161.775 139.633 C 161.775 151.647 173.005 162.205 183.199 162.205 C 195.439 162.205 205.639 152.059 205.641 140.018 C 205.641 152.058 215.491 162.205 227.734 162.205 C 239.976 162.205 249.51 152.059 249.51 140.018 C 249.51 152.058 259.98 162.205 272.22 162.205 L 272.44 162.205 C 284.68 162.205 295.16 152.059 295.16 140.018 C 295.16 152.058 304.69 162.205 316.93 162.205 C 329.17 162.205 339.02 152.059 339.02 140.018 C 339.02 152.058 349.22 162.205 361.46 162.205 C 371.65 162.205 382.88 151.648 382.88 139.633 L 382.88 130.155 C 382.69 124.43 363.69 102.599 354.05 96.873 C 324.08 95.82 303.29 95.639 272.32 95.643 C 241.361 95.645 199.131 96.128 190.601 96.873 L 190.603 96.873 Z M 249.356 156.547 C 248.185 158.588 246.735 160.454 245.048 162.093 C 240.258 166.791 233.816 169.419 227.108 169.413 C 220.123 169.413 213.752 166.613 209.132 162.091 C 207.462 160.451 206.192 158.697 205.022 156.655 L 205.022 156.659 C 203.862 158.705 202.232 160.457 200.562 162.099 C 195.76 166.796 189.308 169.423 182.592 169.416 C 181.752 169.416 180.882 169.186 180.172 168.946 C 179.192 179.196 178.772 188.986 178.628 196.136 L 178.628 196.176 C 178.608 199.806 178.593 202.786 178.574 206.926 C 178.764 228.436 176.444 276.626 188.054 288.466 C 206.044 292.666 239.148 294.576 272.364 294.586 L 272.367 294.586 C 305.581 294.576 338.687 292.666 356.677 288.476 C 368.287 276.634 365.967 228.444 366.157 206.941 C 366.14 202.801 366.123 199.819 366.104 196.191 L 366.104 196.151 C 365.954 189.009 365.539 179.216 364.554 168.968 C 363.844 169.208 362.967 169.441 362.124 169.441 C 355.406 169.448 348.953 166.821 344.149 162.125 C 342.474 160.48 340.849 158.728 339.686 156.685 L 339.681 156.678 C 338.514 158.718 337.243 160.475 335.568 162.114 C 330.948 166.634 324.578 169.434 317.595 169.434 C 310.612 169.434 304.275 166.634 299.655 162.114 C 297.968 160.474 296.518 158.608 295.345 156.568 C 294.188 158.607 292.752 160.473 291.079 162.114 C 286.274 166.814 279.819 169.442 273.099 169.434 C 272.855 169.434 272.609 169.424 272.369 169.414 L 272.361 169.414 C 272.118 169.424 271.875 169.434 271.631 169.434 C 264.645 169.434 258.274 166.634 253.653 162.114 C 251.978 160.474 250.541 158.608 249.383 156.57 L 249.356 156.547 Z M 230.894 180.42 L 230.892 180.428 L 230.912 180.428 C 238.222 180.444 244.722 180.428 252.762 189.211 C 259.102 188.548 265.712 188.215 272.342 188.226 L 272.352 188.226 C 278.982 188.216 285.592 188.556 291.932 189.216 C 299.982 180.436 306.472 180.456 313.782 180.436 L 313.802 180.436 L 313.802 180.426 C 317.262 180.426 331.072 180.426 340.702 207.466 L 351.05 244.566 C 358.715 272.166 348.597 272.846 335.977 272.866 C 317.257 272.176 306.897 258.576 306.897 244.986 C 296.537 246.686 284.447 247.536 272.362 247.536 L 272.357 247.536 C 260.271 247.536 248.185 246.686 237.827 244.986 C 237.827 258.576 227.467 272.166 208.749 272.866 C 196.129 272.846 186.009 272.166 193.676 244.576 L 204.016 207.476 C 213.646 180.436 227.466 180.436 230.916 180.436 L 230.894 180.42 Z M 272.334 201.67 L 272.334 201.677 C 272.317 201.694 252.632 219.773 249.094 226.203 L 261.984 225.687 L 261.984 236.927 C 261.984 237.454 267.158 237.24 272.334 237.001 L 272.341 237.001 C 277.518 237.241 282.691 237.454 282.691 236.928 L 282.691 225.688 L 295.581 226.202 C 292.043 219.772 272.341 201.677 272.341 201.677 L 272.341 201.671 L 272.339 201.673 L 272.334 201.67 Z" style="fill: rgb(102, 102, 102);" id="object-0"/></svg>